HIERARCHY
ROOT joint_Root
{
	OFFSET 0.0 0.0 0.0
	CHANNELS 6 Xposition Yposition Zposition Zrotation Xrotation Yrotation 
	JOINT Hips
	{
		OFFSET 4.5925 91.4895 -427.239
		CHANNELS 6 Xposition Yposition Zposition Zrotation Xrotation Yrotation 
		JOINT Spine
		{
			OFFSET 15.7357 0.0 0.0
			CHANNELS 6 Xposition Yposition Zposition Zrotation Xrotation Yrotation 
			JOINT Chest
			{
				OFFSET 8.98455 -0.406207 0.0
				CHANNELS 6 Xposition Yposition Zposition Zrotation Xrotation Yrotation 
				JOINT Neck
				{
					OFFSET 16.3773 0.0 0.0
					CHANNELS 6 Xposition Yposition Zposition Zrotation Xrotation Yrotation 
					JOINT Head
					{
						OFFSET 6.45672 0.0 0.0
						CHANNELS 6 Xposition Yposition Zposition Zrotation Xrotation Yrotation 
						End Site
						{
							OFFSET 0.0 0.0 0.0
						}
					}
				}
				JOINT Shoulder_L
				{
					OFFSET 12.9942 -0.242716 4.98039
					CHANNELS 6 Xposition Yposition Zposition Zrotation Xrotation Yrotation 
					JOINT UpperArm_L
					{
						OFFSET 5.34809 0.0 0.0
						CHANNELS 6 Xposition Yposition Zposition Zrotation Xrotation Yrotation 
						JOINT LowerArm_L
						{
							OFFSET 24.3286 1.87007e-05 0.0
							CHANNELS 6 Xposition Yposition Zposition Zrotation Xrotation Yrotation 
							JOINT Hand_L
							{
								OFFSET 22.2916 0.0 0.0
								CHANNELS 6 Xposition Yposition Zposition Zrotation Xrotation Yrotation 
								End Site
								{
									OFFSET 0.0 0.0 0.0
								}
							}
						}
					}
				}
				JOINT Shoulder_R
				{
					OFFSET 12.9945 -0.242716 -4.98039
					CHANNELS 6 Xposition Yposition Zposition Zrotation Xrotation Yrotation 
					JOINT UpperArm_R
					{
						OFFSET -5.34813 0.0 0.0
						CHANNELS 6 Xposition Yposition Zposition Zrotation Xrotation Yrotation 
						JOINT LowerArm_R
						{
							OFFSET -24.3289 0.000322201 0.0
							CHANNELS 6 Xposition Yposition Zposition Zrotation Xrotation Yrotation 
							JOINT Hand_R
							{
								OFFSET -22.2915 -0.000108084 0.0
								CHANNELS 6 Xposition Yposition Zposition Zrotation Xrotation Yrotation 
								End Site
								{
									OFFSET 0.0 0.0 0.0
								}
							}
						}
					}
				}
			}
		}
		JOINT UpperLeg_L
		{
			OFFSET -2.19248 -6.46944 0.0
			CHANNELS 6 Xposition Yposition Zposition Zrotation Xrotation Yrotation 
			JOINT LowerLeg_L
			{
				OFFSET 39.0811 0.0 -1.23785e-05
				CHANNELS 6 Xposition Yposition Zposition Zrotation Xrotation Yrotation 
				JOINT Foot_L
				{
					OFFSET 40.9854 0.0 -1.26872e-05
					CHANNELS 6 Xposition Yposition Zposition Zrotation Xrotation Yrotation 
					JOINT Toes_L
					{
						OFFSET 11.7543 0.0 0.0
						CHANNELS 6 Xposition Yposition Zposition Zrotation Xrotation Yrotation 
						End Site
						{
							OFFSET 0.0 0.0 0.0
						}
					}
				}
			}
		}
		JOINT UpperLeg_R
		{
			OFFSET -2.19251 6.46944 0.0
			CHANNELS 6 Xposition Yposition Zposition Zrotation Xrotation Yrotation 
			JOINT LowerLeg_R
			{
				OFFSET -39.0811 -0.00228153 -0.0401928
				CHANNELS 6 Xposition Yposition Zposition Zrotation Xrotation Yrotation 
				JOINT Foot_R
				{
					OFFSET -40.9854 0.0 0.0
					CHANNELS 6 Xposition Yposition Zposition Zrotation Xrotation Yrotation 
					JOINT Toes_R
					{
						OFFSET -11.7543 0.0 0.0
						CHANNELS 6 Xposition Yposition Zposition Zrotation Xrotation Yrotation 
						End Site
						{
							OFFSET 0.0 0.0 0.0
						}
					}
				}
			}
		}
	}
}
MOTION
Frames:	6
Frame Time:	0.0333333
0.000000 0.000000 0.000000 0.000000 0.000000 -0.000000 -10.518600 88.997400 -2.880520 82.201500 -3.622390 12.282500 15.735700 0.000005 -0.000001 86.722800 80.711100 -83.732700 8.984550 -0.406207 -0.000000 10.815200 -0.974732 6.069480 16.377300 -0.000001 -0.000001 12.362900 -3.308720 5.072650 6.456720 -0.000001 -0.000000 4.849400 -2.760320 10.141600 12.994200 -0.242716 4.980390 -91.373800 4.775810 -73.931500 5.348090 -0.000007 -0.000001 -63.041100 36.720800 -17.315600 24.328600 0.000019 0.000005 7.969760 26.208700 -17.588700 22.291600 -0.000001 0.000005 7.204010 5.304690 -0.060999 12.994500 -0.242716 -4.980390 87.996100 12.191500 -80.592600 -5.348130 -0.000001 -0.000004 -57.776800 27.490100 -12.163500 -24.328900 0.000322 -0.000009 1.051890 3.418080 -17.133800 -22.291500 -0.000108 -0.000004 13.154700 5.387220 -2.526800 -2.192480 -6.469440 -0.000000 -160.119000 -8.437550 -3.727770 39.081100 -0.000007 -0.000012 -0.410197 0.498193 39.468000 40.985400 -0.000006 -0.000013 -7.997250 3.005710 -71.558800 11.754300 -0.000000 0.000003 -0.000033 -0.000397 -16.593000 -2.192510 6.469440 -0.000001 -172.545000 23.596600 -178.512000 -39.081100 -0.002282 -0.040193 -0.137064 0.216008 33.015500 -40.985400 0.000008 0.000006 9.763100 9.053310 -73.427100 -11.754300 -0.000006 -0.000006 -0.002002 -0.028739 -17.741700
0.000000 0.000000 0.000000 0.000000 0.000000 -0.000000 -10.267100 89.020400 -2.905470 82.159800 -3.517670 12.394700 15.735700 0.000005 -0.000001 86.494100 80.708100 -83.530400 8.984550 -0.406207 -0.000000 10.818600 -1.049190 6.023930 16.377300 -0.000001 -0.000001 13.116600 -3.285660 4.981640 6.456720 -0.000001 -0.000000 5.409990 -2.783880 9.839410 12.994200 -0.242716 4.980390 -91.374600 4.759770 -73.870900 5.348090 -0.000007 -0.000001 -62.269300 37.055300 -18.547400 24.328600 0.000019 0.000005 8.964910 26.971100 -19.178700 22.291600 -0.000001 0.000005 6.417850 5.323550 -0.599248 12.994500 -0.242716 -4.980390 88.010100 11.994600 -80.508500 -5.348130 -0.000001 -0.000004 -57.269400 27.082400 -13.276500 -24.328900 0.000322 -0.000009 0.996786 2.953730 -18.678200 -22.291500 -0.000108 -0.000004 13.284200 5.392790 -2.704410 -2.192480 -6.469440 -0.000000 -160.213000 -8.535950 -3.714260 39.081100 -0.000007 -0.000012 -0.409411 0.495664 39.557100 40.985400 -0.000006 -0.000013 -7.751150 3.148580 -71.588400 11.754300 -0.000000 0.000003 -0.000035 -0.000413 -16.593600 -2.192510 6.469440 -0.000001 -172.759000 23.725700 -178.415000 -39.081100 -0.002282 -0.040193 -0.137089 0.215999 33.021100 -40.985400 0.000008 0.000006 9.610770 9.163460 -73.362600 -11.754300 -0.000006 -0.000006 -0.001821 -0.026451 -17.648700
0.000000 0.000000 0.000000 0.000000 0.000000 -0.000000 -9.994350 89.045100 -2.919540 82.156700 -3.483200 12.512600 15.735700 0.000005 -0.000001 86.427700 80.713900 -83.505700 8.984550 -0.406207 -0.000000 10.805700 -1.071300 5.942250 16.377300 -0.000001 -0.000001 13.827500 -3.317560 4.894360 6.456720 -0.000001 -0.000000 6.177770 -2.804570 9.394270 12.994200 -0.242716 4.980390 -91.376800 4.779640 -73.909700 5.348090 -0.000007 -0.000001 -60.899800 37.025200 -20.113200 24.328600 0.000019 0.000005 10.188300 27.442100 -21.303500 22.291600 -0.000001 0.000005 5.647380 5.339500 -1.066360 12.994500 -0.242716 -4.980390 88.041700 11.759700 -80.476400 -5.348130 -0.000001 -0.000004 -56.630200 26.374300 -14.546300 -24.328900 0.000322 -0.000009 0.944681 2.517090 -20.601500 -22.291500 -0.000108 -0.000004 13.312900 5.397930 -2.870430 -2.192480 -6.469440 -0.000000 -160.321000 -8.788380 -3.646460 39.081100 -0.000007 -0.000012 -0.406527 0.490861 39.632200 40.985400 -0.000006 -0.000013 -7.460490 3.359770 -71.618700 11.754300 -0.000000 0.000003 -0.000031 -0.000376 -16.592200 -2.192510 6.469440 -0.000001 -173.020000 23.757600 -178.315000 -39.081100 -0.002282 -0.040193 -0.141094 0.221900 33.051900 -40.985400 0.000008 0.000006 9.429240 9.246780 -73.300400 -11.754300 -0.000006 -0.000006 -0.001861 -0.026959 -17.669300
0.000000 0.000000 0.000000 0.000000 0.000000 -0.000000 -9.711140 89.072900 -2.959130 82.130000 -3.308540 12.654600 15.735700 0.000005 -0.000001 86.107300 80.711900 -83.213900 8.984550 -0.406207 -0.000000 10.805400 -1.175200 5.895020 16.377300 -0.000001 -0.000001 14.583900 -3.349370 4.829200 6.456720 -0.000001 -0.000000 6.783560 -2.838510 8.748190 12.994200 -0.242716 4.980390 -91.384700 4.825200 -73.967500 5.348090 -0.000007 -0.000001 -59.070500 36.245300 -22.064100 24.328600 0.000019 0.000005 11.417800 27.478300 -23.638600 22.291600 -0.000001 0.000005 5.386560 5.351370 -1.418490 12.994500 -0.242716 -4.980390 88.083900 11.409500 -80.401000 -5.348130 -0.000001 -0.000004 -55.702300 25.687300 -16.082300 -24.328900 0.000322 -0.000009 0.932107 2.201130 -22.982900 -22.291500 -0.000108 -0.000004 13.458700 5.400230 -2.944900 -2.192480 -6.469440 -0.000000 -160.455000 -8.878240 -3.636660 39.081100 -0.000007 -0.000012 -0.401714 0.483657 39.713200 40.985400 -0.000006 -0.000013 -7.167230 3.556660 -71.627900 11.754300 -0.000000 0.000003 -0.000038 -0.000449 -16.595000 -2.192510 6.469440 -0.000001 -173.282000 23.889300 -178.203000 -39.081100 -0.002282 -0.040193 -0.141739 0.222872 33.054300 -40.985400 0.000008 0.000006 9.236430 9.321460 -73.213400 -11.754300 -0.000006 -0.000006 -0.001721 -0.025168 -17.596500
0.000000 0.000000 0.000000 0.000000 0.000000 -0.000000 -9.398040 89.106200 -3.003590 82.179900 -3.142850 12.753400 15.735700 0.000005 -0.000001 85.780100 80.734500 -82.941300 8.984550 -0.406207 -0.000000 10.755000 -1.279760 5.795260 16.377300 -0.000001 -0.000001 15.377300 -3.374490 4.700140 6.456720 -0.000001 -0.000000 7.343980 -2.849280 8.143990 12.994200 -0.242716 4.980390 -91.379900 4.790740 -73.910800 5.348090 -0.000007 -0.000001 -57.112700 34.593700 -24.316100 24.328600 0.000019 0.000005 12.402100 26.879600 -25.937500 22.291600 -0.000001 0.000005 5.681630 5.348930 -1.345030 12.994500 -0.242716 -4.980390 88.129000 11.042100 -80.321000 -5.348130 -0.000001 -0.000004 -54.531000 24.700000 -17.790000 -24.328900 0.000322 -0.000009 0.823452 1.707120 -25.787500 -22.291500 -0.000108 -0.000004 13.655100 5.406990 -3.165990 -2.192480 -6.469440 -0.000000 -160.681000 -9.061520 -3.642040 39.081100 -0.000007 -0.000012 -0.396282 0.476374 39.757000 40.985400 -0.000006 -0.000013 -6.836340 3.777180 -71.619200 11.754300 -0.000000 0.000003 -0.000033 -0.000389 -16.592700 -2.192510 6.469440 -0.000001 -173.617000 23.959800 -178.169000 -39.081100 -0.002282 -0.040193 -0.145755 0.228670 33.097000 -40.985400 0.000008 0.000006 9.017150 9.389010 -73.124500 -11.754300 -0.000006 -0.000006 -0.001814 -0.026370 -17.645400
0.000000 0.000000 0.000000 0.000000 0.000000 -0.000000 -9.084590 89.148600 -3.036200 82.249000 -2.940780 12.881600 15.735700 0.000005 -0.000001 85.541500 80.778800 -82.769300 8.984550 -0.406207 -0.000000 10.661800 -1.353500 5.667650 16.377300 -0.000001 -0.000001 16.179600 -3.403580 4.554120 6.456720 -0.000001 -0.000000 8.111640 -2.919070 7.562850 12.994200 -0.242716 4.980390 -91.326900 4.645060 -74.038300 5.348090 -0.000007 -0.000001 -55.272700 32.012700 -26.596100 24.328600 0.000019 0.000005 13.243000 25.937000 -28.283500 22.291600 -0.000001 0.000005 5.999700 5.344410 -1.209890 12.994500 -0.242716 -4.980390 88.182000 10.637700 -80.243300 -5.348130 -0.000001 -0.000004 -53.149400 23.540400 -19.650000 -24.328900 0.000322 -0.000009 0.601568 1.097940 -28.774000 -22.291500 -0.000108 -0.000004 13.984400 5.411250 -3.306640 -2.192480 -6.469440 -0.000000 -160.935000 -9.207360 -3.596530 39.081100 -0.000007 -0.000012 -0.390785 0.469910 39.748300 40.985400 -0.000006 -0.000013 -6.502740 3.995350 -71.593700 11.754300 -0.000000 0.000003 -0.000035 -0.000411 -16.593600 -2.192510 6.469440 -0.000001 -174.002000 24.096200 -178.060000 -39.081100 -0.002282 -0.040193 -0.151525 0.237626 33.085600 -40.985400 0.000008 0.000006 8.792330 9.451940 -73.025100 -11.754300 -0.000006 -0.000006 -0.001864 -0.027001 -17.671000
